<?xml version="1.0" encoding="iso-8859-1"?>
<!-- Generator: Adobe Illustrator 19.0.0, SVG Export Plug-In . SVG Version: 6.00 Build 0)  -->
<svg version="1.1" id="Capa_1" xmlns="http://www.w3.org/2000/svg" xmlns:xlink="http://www.w3.org/1999/xlink" x="0px" y="0px"
	 viewBox="0 0 496 496" style="enable-background:new 0 0 496 496;" xml:space="preserve">
<g>
	<g>
		<path d="M416,0H80C57.9,0,40,17.9,40,40v416c0,22.1,17.9,40,40,40h336c22.1,0,40-17.9,40-40V40C456,17.9,438,0,416,0z M440,456
			c0,13.2-10.8,24-24,24H80c-13.2,0-24-10.8-24-24V40c0-13.2,10.8-24,24-24h336c13.2,0,24,10.8,24,24V456z"/>
	</g>
</g>
<g>
	<g>
		<rect x="88" y="408" width="200" height="16"/>
	</g>
</g>
<g>
	<g>
		<rect x="352" y="408" width="48" height="16"/>
	</g>
</g>
<g>
	<g>
		<rect x="88" y="440" width="200" height="16"/>
	</g>
</g>
<g>
	<g>
		<rect x="352" y="440" width="48" height="16"/>
	</g>
</g>
<g>
	<g>
		<path d="M252.2,75.9c-3-5.1-6.9-10.2-12-15.6c-9.8-10.3-20.5-17.5-32.7-22.1c-3.7-1.4-7.9,0.2-9.8,3.6c-1.9,3.5-1,7.8,2.2,10.2
			c7.6,5.7,8.8,17.2,6.2,25.6c-2.9,9.2-9.8,15.9-17.1,22.9c-8,7.8-16.3,15.8-20.7,27.9c-6.2,17.2-5.3,42.2,8.7,56.6
			c5.2,5.8,12.6,9.5,21.3,11.1c3.1,0.6,6.3,0.8,9.5,0.8c10.4,0,21-2.8,28.9-7.8c15.6-9.9,25.9-29,27.5-51
			C265.5,120.4,263,94.8,252.2,75.9z M248.3,137c-1.3,17-8.8,31.4-20.2,38.7c-7,4.5-17.8,6.4-26.9,4.7c-5.4-1-9.8-3.1-12.8-6.2
			c-9-9.4-9.7-27.7-5.2-40.1c3.1-8.6,9.8-15.1,16.8-21.8c8-7.8,17.2-16.6,21.3-29.7c1.7-5.4,2.3-11,1.9-16.4
			c1.8,1.6,3.6,3.4,5.4,5.2c4.2,4.4,7.4,8.5,9.7,12.6C245.8,97,249.7,117.8,248.3,137z"/>
	</g>
</g>
<g>
	<g>
		<path d="M332.4,107.8c-8.3-9.5-20.3-16.3-28.4-18.5c-7.8-2.1-10.4,3.2-11.2,7.5c-0.7,3.4,0,6.7,2.8,8.4c0.6,1.9,0.6,5.7,0.5,7.7
			c-0.2,4.8-2.4,9.9-4.2,14.9c-0.7,1.8-1.5,3.6-2.3,5.6c-4.4,10.5-9.8,23.6-4.2,36.1c3.1,7.3,9.3,12.8,17.3,15.5
			c3.6,1.2,7.4,1.8,11.2,1.8c10.1,0,19.8-4.9,25.9-12.5C355.5,154.6,345.6,122.7,332.4,107.8z M327.1,165.1
			c-4,5.1-12.4,7.2-19.5,4.8c-2.6-0.9-6.2-2.8-8-6.9c-2.6-6.3,1.2-15.4,4.5-23.5c0.9-2.1,1.7-4.2,2.4-6.1c2.1-5.5,4.6-12.4,5-19.6
			c0-0.1,0-0.8,0-1.7c3.3,2.1,6.2,4.6,8.8,7.6C330.7,131.5,336,153.9,327.1,165.1z"/>
	</g>
</g>
<g>
	<g>
		<path d="M368,216H120c-4.4,0-8,3.6-8,8v144c0,4.4,3.5,8,8,8h248c4.4,0,8-3.6,8-8V224C376,219.6,372.4,216,368,216z M360,360H128
			V232h232V360z"/>
	</g>
</g>
<g>
</g>
<g>
</g>
<g>
</g>
<g>
</g>
<g>
</g>
<g>
</g>
<g>
</g>
<g>
</g>
<g>
</g>
<g>
</g>
<g>
</g>
<g>
</g>
<g>
</g>
<g>
</g>
<g>
</g>
</svg>
