<?xml version="1.0" encoding="iso-8859-1"?>
<!-- Generator: Adobe Illustrator 19.0.0, SVG Export Plug-In . SVG Version: 6.00 Build 0)  -->
<svg version="1.1" id="Capa_1" xmlns="http://www.w3.org/2000/svg" xmlns:xlink="http://www.w3.org/1999/xlink" x="0px" y="0px"
	 viewBox="0 0 496.003 496.003" style="enable-background:new 0 0 496.003 496.003;" xml:space="preserve">
<g>
	<g>
		<path d="M495.163,244.426l-96-192c-1.36-2.712-4.128-4.424-7.16-4.424h-32v-40c0-4.424-3.584-8-8-8h-80c-4.416,0-8,3.576-8,8v40
			h-160c-3.032,0-5.8,1.712-7.16,4.424l-96,192c-1.24,2.48-1.104,5.424,0.352,7.784c1.464,2.352,4.032,3.792,6.808,3.792h40v200
			c0,22.056,17.944,40,40,40h320c22.056,0,40-17.944,40-40v-200h40c2.776,0,5.344-1.44,6.808-3.8
			C496.267,249.842,496.395,246.898,495.163,244.426z M440.003,240.002c-4.416,0-8,3.576-8,8v208c0,13.232-10.768,24-24,24h-320
			c-13.232,0-24-10.768-24-24v-208c0-4.424-3.584-8-8-8H20.947l88-176h163.056c4.416,0,8-3.576,8-8v-40h64v40c0,4.424,3.584,8,8,8
			h35.056l88,176H440.003z"/>
	</g>
</g>
<g>
	<g>
		<path d="M208.003,96.002c-6.168,0-11.744,2.4-16,6.24c-4.256-3.84-9.832-6.24-16-6.24c-6.168,0-11.744,2.4-16,6.24
			c-4.256-3.84-9.832-6.24-16-6.24c-13.232,0-24,10.768-24,24v80c0,13.232,10.768,24,24,24h8v200c0,13.232,10.768,24,24,24
			s24-10.768,24-24v-200h8c13.232,0,24-10.768,24-24v-80C232.003,106.77,221.235,96.002,208.003,96.002z M216.003,200.002
			c0,4.416-3.592,8-8,8h-16c-4.416,0-8,3.576-8,8v208c0,4.416-3.592,8-8,8s-8-3.584-8-8v-208c0-4.424-3.584-8-8-8h-16
			c-4.408,0-8-3.584-8-8v-80c0-4.416,3.592-8,8-8s8,3.584,8,8v64h16v-64c0-4.416,3.592-8,8-8s8,3.584,8,8v64h16v-64
			c0-4.416,3.592-8,8-8s8,3.584,8,8V200.002z"/>
	</g>
</g>
<g>
	<g>
		<path d="M368.003,96.002c-22.416,0-41.592,16.008-45.592,38.056l-26.28,144.52c-0.64,3.504,1.112,6.992,4.296,8.584l27.576,13.792
			v123.048c0,13.232,10.768,24,24,24s24-10.768,24-24v-320C376.003,99.578,372.419,96.002,368.003,96.002z M352.003,432.002
			c-4.408,0-8-3.584-8-8v-128c0-3.032-1.712-5.8-4.424-7.16l-26.632-13.312l25.2-138.616c2.128-11.72,10.808-20.832,21.848-23.848
			v310.936h0.008C360.003,428.418,356.411,432.002,352.003,432.002z"/>
	</g>
</g>
<g>
</g>
<g>
</g>
<g>
</g>
<g>
</g>
<g>
</g>
<g>
</g>
<g>
</g>
<g>
</g>
<g>
</g>
<g>
</g>
<g>
</g>
<g>
</g>
<g>
</g>
<g>
</g>
<g>
</g>
</svg>
